<?xml version="1.0" standalone="no"?><!DOCTYPE svg PUBLIC "-//W3C//DTD SVG 1.1//EN" "http://www.w3.org/Graphics/SVG/1.1/DTD/svg11.dtd"><svg t="1646908037108" class="icon" viewBox="0 0 1024 1024" version="1.1" xmlns="http://www.w3.org/2000/svg" p-id="1489" xmlns:xlink="http://www.w3.org/1999/xlink" width="128" height="128"><defs><style type="text/css"></style></defs><path d="M736 753.92c0 1.28 1.28 3.84 1.28 5.12l-1.28-3.84v1.28c-44.8-84.48-98.56-170.24-111.36-190.72-19.2 38.4-58.88 61.44-101.12 61.44h-19.2c-12.8 15.36-76.8 90.88-142.08 158.72l-8.96 7.68c-37.12 43.52-80.64 80.64-130.56 110.08-49.92 28.16 239.36 202.24 439.04 66.56 70.4-43.52 102.4-129.28 76.8-207.36l-2.56-3.84v-5.12z" fill="#FFEA00" p-id="1490"></path><path d="M999.68 518.4c-21.76-80.64-94.72-135.68-177.92-131.84-96 16.64-197.12 42.24-216.32 47.36 20.48 21.76 32 49.92 32 79.36 0 15.36-2.56 30.72-10.24 46.08 48.64 57.6 84.48 122.88 107.52 193.28l1.28 5.12 2.56 3.84c29.44 47.36 49.92 99.84 62.72 154.88 12.8 56.32 264.96-166.4 198.4-398.08z" fill="#FF0022" p-id="1491"></path><path d="M734.72 752.64v-1.28c-23.04-70.4-60.16-135.68-107.52-192 0 2.56-1.28 5.12-2.56 7.68l1.28 1.28c12.8 19.2 65.28 104.96 110.08 186.88l1.28 2.56c-1.28-1.28-1.28-2.56-2.56-5.12z" fill="#E95130" p-id="1492"></path><path d="M472.32 409.6c14.08-6.4 30.72-10.24 47.36-8.96 28.16 0 55.04 10.24 75.52 29.44l6.4 5.12c19.2-5.12 121.6-30.72 216.32-47.36 55.04-14.08 112.64-17.92 170.24-12.8 57.6 5.12-75.52-303.36-316.16-312.32-78.08-3.84-151.04 43.52-176.64 117.76 0 3.84 0 6.4-1.28 10.24-12.8 93.44-21.76 198.4-21.76 218.88z" fill="#D13BFC" p-id="1493"></path><path d="M314.88 488.96c47.36 20.48 85.76 35.84 96 39.68-1.28-5.12-1.28-10.24-1.28-16.64 0-39.68 20.48-78.08 55.04-98.56l8.96-5.12c0-19.2 7.68-124.16 21.76-218.88C499.2 133.12 512 78.08 535.04 25.6c5.12-12.8-11.52-20.48-40.96-21.76h-15.36c-94.72 2.56-281.6 64-340.48 225.28-28.16 72.96-3.84 156.16 57.6 204.8 3.84 1.28 7.68 3.84 11.52 5.12 37.12 16.64 71.68 34.56 107.52 49.92z" fill="#23A0F7" p-id="1494"></path><path d="M353.28 792.32c69.12-70.4 138.24-149.76 149.76-163.84-5.12 0-10.24-1.28-16.64-3.84-38.4-12.8-66.56-44.8-75.52-83.2l-1.28-11.52c-11.52-3.84-48.64-19.2-96-40.96-35.84-16.64-70.4-33.28-104.96-51.2-52.48-21.76-101.12-53.76-142.08-90.88-10.24-8.96-23.04 3.84-34.56 30.72l-5.12 14.08C0 483.84-2.56 679.68 131.84 787.2c64 52.48 154.88 55.04 221.44 5.12z" fill="#00E46C" p-id="1495"></path></svg>