<?xml version="1.0" standalone="no"?><!DOCTYPE svg PUBLIC "-//W3C//DTD SVG 1.1//EN" "http://www.w3.org/Graphics/SVG/1.1/DTD/svg11.dtd"><svg t="1611728681761" class="icon" viewBox="0 0 1024 1024" version="1.1" xmlns="http://www.w3.org/2000/svg" p-id="17787" xmlns:xlink="http://www.w3.org/1999/xlink" width="128" height="128"><defs><style type="text/css"></style></defs><path d="M217.96181333 586.63822222c2.83989333 20.68024889 5.75260445 41.50613333 8.59249778 62.98737778 17.62190222-13.18001778 34.44280889-26.2144 51.48216889-39.03032889C275.77912889 607.68256 229.03011555 589.11402667 217.96181333 586.63822222z" p-id="17788" fill="#F08198"></path><path d="M623.70247111 586.63822222c2.83989333 20.68024889 5.75260445 41.50613333 8.59249778 62.98737778 17.62190222-13.18001778 34.44280889-26.2144 51.48216889-39.03032889C681.51978667 607.68256 634.77077333 589.11402667 623.70247111 586.63822222z" p-id="17789" fill="#F08198"></path><path d="M516.15061333 1.47456c-277.87264 0-503.09802667 225.22538667-503.09802666 503.09802667s225.22538667 503.09802667 503.09802666 503.09802666 503.09802667-225.22538667 503.09802667-503.09802666S794.02325333 1.47456 516.15061333 1.47456zM487.60604445 438.45404445l16.6752711 0c2.83989333 0 4.22343111 0.94663111 4.22343112 4.36906666l0 48.64227556 0 3.85934222c-6.69923555-0.36408889-13.61692445-0.58254222-20.82588445-0.94663111L487.67886222 438.45404445zM373.71904 432.19171555c1.89326222 0 2.83989333 1.16508445 3.2768 3.42243556 1.74762667 17.62190222 3.2768 34.80689778 5.17006222 53.01134222-6.69923555 0.80099555-13.03438222 0.94663111-20.09770667 1.52917334-2.47580445-19.29671111-4.80597333-38.08369778-7.28177777-57.59886222C361.34001778 432.19171555 367.60234667 432.19171555 373.71904 432.19171555zM346.55800889 435.25006222c2.69425778-0.36408889 1.89326222 1.89326222 2.33016889 3.42243556 0.58254222 6.48078222 1.31072 12.59747555 1.89326222 18.93262222 0.94663111 9.97603555 2.33016889 19.51516445 3.2768 29.4912l0 3.85934222-15.51018667 2.69425778c-3.42243555-18.56853333-6.69923555-36.91861333-10.12167111-55.85123555C334.54307555 437.14332445 340.44131555 435.75978667 346.55800889 435.25006222zM343.71811555 616.05660445c-2.47580445 8.22840889-8.22840889 14.70919111-15.29173333 20.09770666-16.67527111 13.18001778-33.86026667 24.68522667-53.95797333 31.38446222-14.12664889 4.80597333-28.54456889 8.22840889-43.25376 10.55857778-19.15107555 2.83989333-38.66624 4.22343111-58.18140444 6.11669334-4.00497778 0.58254222-7.86432 0-12.08775112 0-1.89326222 0-2.47580445-0.94663111-2.47580444-2.83989334-0.21845333-8.59249778-0.94663111-17.62190222-1.52917334-26.57848889-0.94663111-11.50520889-2.11171555-22.79196445-3.42243555-34.22435555-1.89326222-16.09272889-3.85934222-31.60291555-5.75260445-47.62282667-1.89326222-16.82090667-4.22343111-33.49617778-6.11669333-50.17144889-1.89326222-16.45681778-3.42243555-32.69518222-5.75260444-49.00636444-2.69425778-18.56853333-5.17006222-36.91861333-8.00995556-55.85123556-2.83989333-21.84533333-7.06332445-43.83630222-12.81592889-65.24472889-0.36408889-0.94663111 0.58254222-2.83989333 1.16508445-3.42243555 18.93262222-7.28177778 37.71960889-14.70919111 56.65223111-22.42787556 6.11669333-2.69425778 6.69923555-3.64088889 6.69923556 4.36906667 0 33.86026667 0 67.57489778 0.58254222 101.43516444 0.36408889 17.62190222 0.94663111 35.24380445 2.33016888 52.79288889 1.52917333 21.04433778 3.85934222 42.45276445 5.75260445 63.93400889 0 0.94663111 0.58254222 1.74762667 0.58254222 2.33016889 7.28177778-0.36408889 14.34510222-0.94663111 21.40842667-0.94663111 30.07374222-0.80099555 59.49212445 3.2768 87.67260444 14.34510222 13.76256 5.53415111 27.16103111 11.86929778 39.03032889 20.82588445C346.77646222 593.33745778 349.03381333 602.51249778 343.71811555 616.05660445zM369.13152 659.89290667C359.22830222 610.304 349.61635555 561.51608889 340.07722667 511.56309333c8.00995555-0.94663111 15.72864-2.33016889 23.37450666-3.2768 5.53415111-0.80099555 11.28675555-0.80099555 16.67527112-1.31072 3.05834667-0.36408889 4.95160889 0.94663111 5.38851555 3.85934222 1.16508445 7.64586667 2.47580445 15.29173333 3.42243555 23.37450667 1.74762667 13.03438222 2.83989333 26.2144 4.22343112 39.24878223 1.31072 11.50520889 2.47580445 22.79196445 3.85934222 34.22435555 1.31072 12.08775111 2.83989333 24.32113778 4.36906666 36.91861333 0.36408889 3.42243555 0.94663111 7.28177778 1.31072 11.06830222C391.55939555 657.05301333 380.63672889 658.36373333 369.13152 659.89290667zM450.90588445 645.54780445c-9.97603555-0.94663111-19.51516445-1.52917333-30.07374223-2.47580445-9.02940445-90.87658667-16.67527111-182.55416889-33.86026667-274.08611555 5.53415111-0.58254222 11.28675555-1.31072 17.03936-1.89326223 6.69923555-0.36408889 13.18001778-0.80099555 19.87925334-1.31072 5.53415111-0.36408889 7.64586667 0.94663111 8.00995556 6.33514667l2.83989333 43.25376c1.31072 19.51516445 2.83989333 39.03032889 4.22343111 58.54549333 0.94663111 14.12664889 1.52917333 28.10766222 2.83989333 42.30712889 1.31072 15.51018667 2.83989333 30.80192 4.22343111 46.09365334 1.31072 11.06830222 2.33016889 22.79196445 3.2768 33.86026666 1.31072 12.08775111 2.69425778 24.32113778 3.42243556 36.91861334l0.94663111 10.55857777C453.74577778 645.54780445 452.79914667 645.91189333 450.90588445 645.54780445zM477.26592 438.30840889c2.47580445 0 3.42243555 0.58254222 3.42243555 3.42243556-0.36408889 7.64586667 0 15.72864 0 23.37450666l0 29.05429334c-5.75260445 0.58254222-10.92266667 0.94663111-16.09272888 1.31072-1.52917333-18.56853333-2.83989333-37.28270222-4.36906667-57.23477334L477.26592 438.23559111zM480.17863111 663.16970667c-0.94663111 0-2.47580445-1.52917333-2.47580444-2.47580445-1.52917333-16.67527111-2.83989333-33.27772445-4.36906667-49.95299555-1.31072-15.29173333-2.83989333-31.02037333-4.22343111-46.31210667-1.31072-15.72864-2.83989333-31.60291555-4.22343111-47.62282667 0-0.94663111 0-1.89326222-0.36408889-3.2768 3.85934222-0.80099555 7.28177778-1.31072 11.06830222-1.31072 9.97603555 0 20.09770667 0.21845333 30.07374222 0.58254222 2.47580445 0 3.85934222 1.89326222 3.85934222 4.22343112 0.21845333 5.17006222 0.58254222 9.97603555 0.58254223 15.14609778 0 23.37450667-0.36408889 47.11310222 0 70.4147911 0.36408889 18.93262222 0.94663111 37.35552 1.31072 56.28814223 0 0.94663111 0 2.33016889 0.36408889 4.36906667C501.00451555 663.16970667 490.30030222 663.53379555 480.17863111 663.16970667zM893.34670222 438.45404445l16.67527111 0c2.83989333 0 4.22343111 0.94663111 4.22343112 4.36906666l0 48.64227556 0 3.85934222c-6.69923555-0.36408889-13.61692445-0.58254222-20.82588445-0.94663111L893.41952 438.45404445zM779.45969778 432.19171555c1.89326222 0 2.83989333 1.16508445 3.2768 3.42243556 1.74762667 17.62190222 3.2768 34.80689778 5.17006222 53.01134222-6.69923555 0.80099555-13.03438222 0.94663111-20.09770667 1.52917334-2.47580445-19.29671111-4.80597333-38.08369778-7.28177778-57.59886222C767.00785778 432.19171555 773.34300445 432.19171555 779.45969778 432.19171555zM752.29866667 435.25006222c2.69425778-0.36408889 1.89326222 1.89326222 2.33016888 3.42243556 0.58254222 6.48078222 1.31072 12.59747555 1.89326223 18.93262222 0.94663111 9.97603555 2.33016889 19.51516445 3.2768 29.4912l0 3.85934222-15.51018667 2.69425778c-3.42243555-18.56853333-6.69923555-36.91861333-10.12167111-55.85123555C740.21091555 437.14332445 746.18197333 435.75978667 752.29866667 435.25006222zM749.24032 615.91096889c-2.47580445 8.22840889-8.22840889 14.70919111-15.29173333 20.09770666-16.67527111 13.18001778-33.86026667 24.68522667-53.95797334 31.38446223-14.12664889 4.80597333-28.54456889 8.22840889-43.25376 10.55857777-19.15107555 2.83989333-38.66624 4.22343111-58.18140444 6.11669334-4.00497778 0.58254222-7.86432 0-12.08775111 0-1.89326222 0-2.47580445-0.94663111-2.47580445-2.83989334-0.21845333-8.59249778-0.94663111-17.62190222-1.52917333-26.57848888-0.94663111-11.50520889-2.11171555-22.79196445-3.42243555-34.22435556-1.89326222-16.09272889-3.85934222-31.60291555-5.75260445-47.62282666-1.89326222-16.82090667-4.22343111-33.49617778-6.11669333-50.1714489-1.89326222-16.45681778-3.42243555-32.69518222-5.75260445-49.00636444-2.69425778-18.56853333-5.17006222-36.91861333-8.00995555-55.85123556-2.83989333-21.84533333-7.06332445-43.83630222-12.81592889-65.24472888-0.21845333-0.94663111 0.80099555-2.83989333 1.31072-3.2768 18.93262222-7.28177778 37.71960889-14.70919111 56.65223111-22.42787556 6.11669333-2.69425778 6.69923555-3.64088889 6.69923556 4.36906667 0 33.86026667 0 67.57489778 0.58254222 101.43516444 0.36408889 17.62190222 0.94663111 35.24380445 2.33016888 52.79288889 1.52917333 21.04433778 3.85934222 42.45276445 5.75260445 63.93400889 0 0.94663111 0.58254222 1.74762667 0.58254222 2.33016889 7.28177778-0.36408889 14.34510222-0.94663111 21.40842667-0.94663111 30.07374222-0.80099555 59.49212445 3.2768 87.67260444 14.34510222 13.76256 5.53415111 27.16103111 11.86929778 39.03032889 20.82588445C752.51712 593.33745778 754.77447111 602.51249778 749.24032 615.91096889zM774.87217778 659.89290667c-9.97603555-49.58890667-19.51516445-98.37681778-29.05429333-148.32981334 8.00995555-0.94663111 15.72864-2.33016889 23.37450666-3.2768 5.53415111-0.80099555 11.28675555-0.80099555 16.67527111-1.31072 3.05834667-0.36408889 4.95160889 0.94663111 5.38851556 3.85934222 1.16508445 7.64586667 2.47580445 15.29173333 3.42243555 23.37450667 1.74762667 13.03438222 2.83989333 26.2144 4.22343112 39.24878223 1.31072 11.50520889 2.47580445 22.79196445 3.85934222 34.22435555 1.31072 12.08775111 2.83989333 24.32113778 4.36906666 36.91861333 0.36408889 3.42243555 0.94663111 7.28177778 1.31072 11.06830222C797.30005333 657.05301333 786.37738667 658.36373333 774.87217778 659.89290667zM856.57372445 645.54780445c-9.97603555-0.94663111-19.51516445-1.52917333-30.07374223-2.47580445-9.02940445-90.87658667-16.67527111-182.55416889-33.86026667-274.08611555 5.53415111-0.58254222 11.28675555-1.31072 17.03936-1.89326223 6.69923555-0.36408889 13.18001778-0.80099555 19.87925334-1.31072 5.53415111-0.36408889 7.64586667 0.94663111 8.00995556 6.33514667l2.83989333 43.25376c1.31072 19.51516445 2.83989333 39.03032889 4.22343111 58.54549333 0.94663111 14.12664889 1.52917333 28.10766222 2.83989333 42.30712889 1.31072 15.51018667 2.83989333 30.80192 4.22343111 46.09365334 1.31072 11.06830222 2.33016889 22.79196445 3.2768 33.86026666 1.31072 12.08775111 2.69425778 24.32113778 3.42243556 36.91861334l0.94663111 10.55857777C859.48643555 645.54780445 858.53980445 645.91189333 856.57372445 645.54780445zM883.00657778 438.30840889c2.47580445 0 3.42243555 0.58254222 3.42243555 3.42243556-0.36408889 7.64586667 0 15.72864 0 23.37450666l0 29.05429334c-5.75260445 0.58254222-10.92266667 0.94663111-16.09272888 1.31072-1.52917333-18.56853333-2.83989333-37.28270222-4.36906667-57.23477334L883.00657778 438.23559111zM885.91928889 663.16970667c-0.94663111 0-2.47580445-1.52917333-2.47580444-2.47580445-1.52917333-16.67527111-2.83989333-33.27772445-4.36906667-49.95299555-1.31072-15.29173333-2.83989333-31.02037333-4.22343111-46.31210667-1.31072-15.72864-2.83989333-31.60291555-4.22343112-47.62282667 0-0.94663111 0-1.89326222-0.36408888-3.2768 3.85934222-0.80099555 7.28177778-1.31072 11.06830222-1.31072 9.97603555 0 20.09770667 0.21845333 30.07374222 0.58254222 2.47580445 0 3.85934222 1.89326222 3.85934222 4.22343112 0.21845333 5.17006222 0.58254222 9.97603555 0.58254222 15.14609778 0 23.37450667-0.36408889 47.11310222 0 70.4147911 0.36408889 18.93262222 0.94663111 37.35552 1.31072 56.28814223 0 0.94663111 0 2.33016889 0.3640889 4.36906667C906.74517333 663.16970667 896.04096 663.53379555 885.91928889 663.16970667z" p-id="17790" fill="#F08198"></path></svg>