<?xml version="1.0" standalone="no"?><!DOCTYPE svg PUBLIC "-//W3C//DTD SVG 1.1//EN" "http://www.w3.org/Graphics/SVG/1.1/DTD/svg11.dtd"><svg t="1646907968196" class="icon" viewBox="0 0 1024 1024" version="1.1" xmlns="http://www.w3.org/2000/svg" p-id="44200" xmlns:xlink="http://www.w3.org/1999/xlink" width="128" height="128"><defs><style type="text/css"></style></defs><path d="M986.451501 320.027899H512.018999c-106.033195-0.103995-192.075297 85.768114-192.181292 191.801309a191.9893 191.9893 0 0 0 24.50889 94.051738L107.131346 198.859389c172.778171-223.619867 494.12361-264.834 717.743477-92.055829a511.676815 511.676815 0 0 1 161.576678 213.224339z" fill="#F44336" p-id="44201"></path><path d="M1023.9958 512.019199c-0.235989 282.659192-229.317609 511.740812-511.976801 511.976801a456.643308 456.643308 0 0 1-63.9971-4.265807l230.38956-411.715344c52.803607-91.923835 21.327034-209.240519-70.39681-262.38811a190.203381 190.203381 0 0 0-95.569669-25.59884h474.004522a504.795126 504.795126 0 0 1 37.546298 191.9913z" fill="#FFC107" p-id="44202"></path><path d="M678.411459 608.014849l-230.38956 411.715344h-0.425981C167.232622 984.307799-31.33038 728.311398 4.092015 447.948102a511.682814 511.682814 0 0 1 103.039331-249.088713l237.215251 407.021557 1.279942 2.133903c52.899603 91.895836 170.278284 123.508404 262.17412 70.610801a191.975301 191.975301 0 0 0 70.6108-70.610801z" fill="#4CAF50" p-id="44203"></path><path d="M678.411459 608.014849c-52.899603 91.895836-170.278284 123.508404-262.17412 70.610801a192.0053 192.0053 0 0 1-70.6108-70.610801l-1.279942-2.133903c-51.839651-92.497809-18.877145-209.506507 73.620664-261.346158a191.9993 191.9993 0 0 1 94.051738-24.508889h0.425981a190.203381 190.203381 0 0 1 95.569669 25.59884c91.725844 53.149592 123.200417 170.466276 70.39681 262.39011z" fill="#F44336" p-id="44204"></path><path d="M678.411459 608.014849c-52.899603 91.895836-170.278284 123.508404-262.17412 70.610801a192.0053 192.0053 0 0 1-70.6108-70.610801l-1.279942-2.133903c-51.839651-92.497809-18.877145-209.506507 73.620664-261.346158a191.9993 191.9993 0 0 1 94.051738-24.508889h0.425981a190.203381 190.203381 0 0 1 95.569669 25.59884c91.725844 53.149592 123.200417 170.466276 70.39681 262.39011z" fill="#2196F3" p-id="44205"></path><path d="M511.295032 725.343533a211.788403 211.788403 0 0 1-105.9372-28.414713 214.110298 214.110298 0 0 1-78.204456-78.246454c-58.907331-102.031377-23.948915-232.497465 78.082462-291.404796a213.346333 213.346333 0 0 1 106.785161-28.580705c117.814662-0.091996 213.39833 95.34368 213.488326 213.158342a213.316334 213.316334 0 0 1-28.580705 106.827159 214.52028 214.52028 0 0 1-185.633588 106.661167z m1.10795-383.982601a170.190288 170.190288 0 0 0-148.431274 85.330134c-47.125865 81.716297-19.085135 186.165564 62.631162 233.291429s186.165564 19.085135 233.291429-62.631162c47.125865-81.624301 19.159132-185.997572-62.46517-233.125437a170.666267 170.666267 0 0 0-84.984149-22.862964h-0.041998z" fill="#FAFAFA" p-id="44206"></path></svg>