<svg width="40" height="40" viewBox="0 0 40 40" fill="none" xmlns="http://www.w3.org/2000/svg">
<circle cx="20" cy="20" r="20" fill="#B4BFCC"/>
<path d="M27 12H12.9998C12.2041 12 11.4411 12.3161 10.8784 12.8787C10.3158 13.4413 9.99976 14.2044 9.99976 15V25.0002C9.99976 25.7959 10.3158 26.5589 10.8784 27.1216C11.4411 27.6842 12.2041 28.0003 12.9998 28.0003H27C27.7957 28.0003 28.5588 27.6842 29.1214 27.1216C29.684 26.5589 30.0001 25.7959 30.0001 25.0002V15C30.0001 14.2044 29.684 13.4413 29.1214 12.8787C28.5588 12.3161 27.7957 12 27 12ZM27 14L20.4999 18.4701C20.3479 18.5579 20.1755 18.6041 19.9999 18.6041C19.8244 18.6041 19.6519 18.5579 19.4999 18.4701L12.9998 14H27Z" fill="white"/>
</svg>
