<svg width="198" height="154" viewBox="0 0 198 154" fill="none" xmlns="http://www.w3.org/2000/svg">
<ellipse cx="99" cy="108" rx="99" ry="46" fill="url(#paint0_linear)"/>
<path d="M147.883 104L47.1165 104L54 129L161 129L147.883 104Z" fill="url(#paint1_linear)"/>
<path d="M48.7035 82.6687C48.8723 81.1494 50.1565 80 51.6851 80H143.315C144.844 80 146.128 81.1494 146.297 82.6687L148.63 103.669C148.827 105.446 147.436 107 145.648 107H49.3518C47.5638 107 46.1727 105.446 46.3701 103.669L48.7035 82.6687Z" fill="#D2E4F0"/>
<path d="M58 86C58 84.8954 58.8954 84 60 84H61C62.1046 84 63 84.8954 63 86C63 87.1046 62.1046 88 61 88H60C58.8954 88 58 87.1046 58 86Z" fill="#C0D9EC"/>
<path d="M67 86C67 84.8954 67.8954 84 69 84H70C71.1046 84 72 84.8954 72 86C72 87.1046 71.1046 88 70 88H69C67.8954 88 67 87.1046 67 86Z" fill="#C0D9EC"/>
<path d="M76 86C76 84.8954 76.8954 84 78 84H79C80.1046 84 81 84.8954 81 86C81 87.1046 80.1046 88 79 88H78C76.8954 88 76 87.1046 76 86Z" fill="#C0D9EC"/>
<path d="M85 86C85 84.8954 85.8954 84 87 84H88C89.1046 84 90 84.8954 90 86C90 87.1046 89.1046 88 88 88H87C85.8954 88 85 87.1046 85 86Z" fill="#C0D9EC"/>
<path d="M94 86C94 84.8954 94.8954 84 96 84H97C98.1046 84 99 84.8954 99 86C99 87.1046 98.1046 88 97 88H96C94.8954 88 94 87.1046 94 86Z" fill="#C0D9EC"/>
<path d="M103 86C103 84.8954 103.895 84 105 84H106C107.105 84 108 84.8954 108 86C108 87.1046 107.105 88 106 88H105C103.895 88 103 87.1046 103 86Z" fill="#C0D9EC"/>
<path d="M112 86C112 84.8954 112.895 84 114 84H115C116.105 84 117 84.8954 117 86C117 87.1046 116.105 88 115 88H114C112.895 88 112 87.1046 112 86Z" fill="#C0D9EC"/>
<path d="M121 86C121 84.8954 121.895 84 123 84H124C125.105 84 126 84.8954 126 86C126 87.1046 125.105 88 124 88H123C121.895 88 121 87.1046 121 86Z" fill="#C0D9EC"/>
<path d="M130 86C130 84.8954 130.895 84 132 84H133C134.105 84 135 84.8954 135 86C135 87.1046 134.105 88 133 88H132C130.895 88 130 87.1046 130 86Z" fill="#C0D9EC"/>
<path d="M54 91C54 89.8954 54.8954 89 56 89H57C58.1046 89 59 89.8954 59 91C59 92.1046 58.1046 93 57 93H56C54.8954 93 54 92.1046 54 91Z" fill="#C0D9EC"/>
<path d="M63 91C63 89.8954 63.8954 89 65 89H66C67.1046 89 68 89.8954 68 91C68 92.1046 67.1046 93 66 93H65C63.8954 93 63 92.1046 63 91Z" fill="#C0D9EC"/>
<path d="M72 91C72 89.8954 72.8954 89 74 89H75C76.1046 89 77 89.8954 77 91C77 92.1046 76.1046 93 75 93H74C72.8954 93 72 92.1046 72 91Z" fill="#C0D9EC"/>
<path d="M81 91C81 89.8954 81.8954 89 83 89H84C85.1046 89 86 89.8954 86 91C86 92.1046 85.1046 93 84 93H83C81.8954 93 81 92.1046 81 91Z" fill="#C0D9EC"/>
<path d="M90 91C90 89.8954 90.8954 89 92 89H93C94.1046 89 95 89.8954 95 91C95 92.1046 94.1046 93 93 93H92C90.8954 93 90 92.1046 90 91Z" fill="#C0D9EC"/>
<path d="M99 91C99 89.8954 99.8954 89 101 89H102C103.105 89 104 89.8954 104 91C104 92.1046 103.105 93 102 93H101C99.8954 93 99 92.1046 99 91Z" fill="#C0D9EC"/>
<path d="M108 91C108 89.8954 108.895 89 110 89H111C112.105 89 113 89.8954 113 91C113 92.1046 112.105 93 111 93H110C108.895 93 108 92.1046 108 91Z" fill="#C0D9EC"/>
<path d="M117 91C117 89.8954 117.895 89 119 89H120C121.105 89 122 89.8954 122 91C122 92.1046 121.105 93 120 93H119C117.895 93 117 92.1046 117 91Z" fill="#C0D9EC"/>
<path d="M126 91C126 89.8954 126.895 89 128 89H129C130.105 89 131 89.8954 131 91C131 92.1046 130.105 93 129 93H128C126.895 93 126 92.1046 126 91Z" fill="#C0D9EC"/>
<path d="M135 91C135 89.8954 135.895 89 137 89H138C139.105 89 140 89.8954 140 91C140 92.1046 139.105 93 138 93H137C135.895 93 135 92.1046 135 91Z" fill="#C0D9EC"/>
<path d="M50 97C50 95.8954 50.8954 95 52 95H53C54.1046 95 55 95.8954 55 97C55 98.1046 54.1046 99 53 99H52C50.8954 99 50 98.1046 50 97Z" fill="#C0D9EC"/>
<path d="M59 97C59 95.8954 59.8954 95 61 95H62C63.1046 95 64 95.8954 64 97C64 98.1046 63.1046 99 62 99H61C59.8954 99 59 98.1046 59 97Z" fill="#C0D9EC"/>
<path d="M68 97C68 95.8954 68.8954 95 70 95H71C72.1046 95 73 95.8954 73 97C73 98.1046 72.1046 99 71 99H70C68.8954 99 68 98.1046 68 97Z" fill="#C0D9EC"/>
<path d="M77 97C77 95.8954 77.8954 95 79 95H80C81.1046 95 82 95.8954 82 97C82 98.1046 81.1046 99 80 99H79C77.8954 99 77 98.1046 77 97Z" fill="#C0D9EC"/>
<path d="M86 97C86 95.8954 86.8954 95 88 95H89C90.1046 95 91 95.8954 91 97C91 98.1046 90.1046 99 89 99H88C86.8954 99 86 98.1046 86 97Z" fill="#C0D9EC"/>
<path d="M95 97C95 95.8954 95.8954 95 97 95H98C99.1046 95 100 95.8954 100 97C100 98.1046 99.1046 99 98 99H97C95.8954 99 95 98.1046 95 97Z" fill="#C0D9EC"/>
<path d="M83 102.5C83 101.672 83.6716 101 84.5 101H110.5C111.328 101 112 101.672 112 102.5C112 103.328 111.328 104 110.5 104H84.5C83.6716 104 83 103.328 83 102.5Z" fill="#C0D9EC"/>
<path d="M104 97C104 95.8954 104.895 95 106 95H107C108.105 95 109 95.8954 109 97C109 98.1046 108.105 99 107 99H106C104.895 99 104 98.1046 104 97Z" fill="#C0D9EC"/>
<path d="M113 97C113 95.8954 113.895 95 115 95H116C117.105 95 118 95.8954 118 97C118 98.1046 117.105 99 116 99H115C113.895 99 113 98.1046 113 97Z" fill="#C0D9EC"/>
<path d="M122 97C122 95.8954 122.895 95 124 95H125C126.105 95 127 95.8954 127 97C127 98.1046 126.105 99 125 99H124C122.895 99 122 98.1046 122 97Z" fill="#C0D9EC"/>
<path d="M131 97C131 95.8954 131.895 95 133 95H134C135.105 95 136 95.8954 136 97C136 98.1046 135.105 99 134 99H133C131.895 99 131 98.1046 131 97Z" fill="#C0D9EC"/>
<path d="M140 97C140 95.8954 140.895 95 142 95H143C144.105 95 145 95.8954 145 97C145 98.1046 144.105 99 143 99H142C140.895 99 140 98.1046 140 97Z" fill="#C0D9EC"/>
<ellipse cx="98" cy="70" rx="19" ry="8" fill="#BBD4EA"/>
<ellipse cx="98" cy="69" rx="19" ry="8" fill="#CCDFEF"/>
<rect width="6" height="12" rx="3" transform="matrix(1 0 0 -1 95 68)" fill="#BBD4EA"/>
<rect x="51" width="94" height="60" rx="4" fill="#DFECF6"/>
<rect opacity="0.6" x="56" y="4" width="84" height="48" fill="white"/>
<rect x="56" y="4" width="26" height="48" fill="#E6F0F7"/>
<rect x="89" y="9" width="10" height="10" fill="#E6F0F7"/>
<rect x="89" y="23" width="10" height="10" fill="#E6F0F7"/>
<rect x="89" y="37" width="10" height="10" fill="#E6F0F7"/>
<rect x="101" y="9" width="31" height="10" fill="#E6F0F7"/>
<rect x="101" y="23" width="31" height="10" fill="#E6F0F7"/>
<rect x="101" y="37" width="31" height="10" fill="#E6F0F7"/>
<path d="M61.6725 26.002V31H62.2465V28.669H65.1375V31H65.7115V26.002H65.1375V28.172H62.2465V26.002H61.6725ZM66.8525 26.016C66.7335 26.016 66.6355 26.051 66.5515 26.135C66.4675 26.205 66.4325 26.303 66.4325 26.429C66.4325 26.548 66.4675 26.646 66.5515 26.73C66.6355 26.807 66.7335 26.849 66.8525 26.849C66.9715 26.849 67.0695 26.807 67.1535 26.73C67.2375 26.646 67.2795 26.548 67.2795 26.429C67.2795 26.303 67.2375 26.205 67.1535 26.135C67.0695 26.051 66.9715 26.016 66.8525 26.016ZM66.5725 27.381V31H67.1325V27.381H66.5725ZM68.0016 26.002V31H68.5756V28.956H70.0386C71.1866 28.956 71.7676 28.459 71.7676 27.472C71.7676 26.492 71.1936 26.002 70.0456 26.002H68.0016ZM68.5756 26.499H70.0106C70.4096 26.499 70.7036 26.576 70.8996 26.744C71.0956 26.891 71.1936 27.136 71.1936 27.472C71.1936 27.808 71.0956 28.053 70.9066 28.214C70.7106 28.375 70.4166 28.459 70.0106 28.459H68.5756V26.499ZM74.3988 25.904C73.6288 25.904 73.0268 26.163 72.6068 26.695C72.2218 27.171 72.0328 27.78 72.0328 28.522C72.0328 29.264 72.2148 29.866 72.5928 30.328C73.0058 30.839 73.6008 31.098 74.3778 31.098C74.9098 31.098 75.3718 30.944 75.7568 30.643C76.1698 30.321 76.4288 29.866 76.5408 29.285H75.9878C75.8898 29.719 75.6868 30.048 75.3928 30.272C75.1128 30.482 74.7768 30.587 74.3778 30.587C73.7898 30.587 73.3488 30.391 73.0408 30.006C72.7468 29.642 72.6068 29.145 72.6068 28.522C72.6068 27.899 72.7538 27.402 73.0478 27.024C73.3628 26.618 73.8108 26.415 74.3918 26.415C74.7838 26.415 75.1128 26.506 75.3858 26.695C75.6658 26.891 75.8478 27.171 75.9178 27.535H76.4708C76.4008 27.038 76.1768 26.639 75.7988 26.345C75.4208 26.051 74.9518 25.904 74.3988 25.904Z" fill="white"/>
<circle cx="130" cy="41" r="16.5" fill="#F2F7FB" stroke="#BBD4EA" stroke-width="3"/>
<path d="M132 31C133.833 31.3333 138 33 140 37" stroke="white" stroke-width="3" stroke-linecap="round" stroke-linejoin="round"/>
<path d="M142 53L155 68" stroke="#BBD4EA" stroke-width="4" stroke-linecap="round" stroke-linejoin="round"/>
<defs>
<linearGradient id="paint0_linear" x1="99" y1="62" x2="99" y2="139" gradientUnits="userSpaceOnUse">
<stop stop-color="#E6F0F7"/>
<stop offset="1" stop-color="#E6F0F7" stop-opacity="0"/>
</linearGradient>
<linearGradient id="paint1_linear" x1="97.5" y1="104" x2="97.5" y2="124.924" gradientUnits="userSpaceOnUse">
<stop stop-color="#E3ECF2"/>
<stop offset="1" stop-color="#E6F0F7" stop-opacity="0"/>
</linearGradient>
</defs>
</svg>
