<?xml version="1.0" standalone="no"?><!DOCTYPE svg PUBLIC "-//W3C//DTD SVG 1.1//EN" "http://www.w3.org/Graphics/SVG/1.1/DTD/svg11.dtd"><svg t="1646907504951" class="icon" viewBox="0 0 1024 1024" version="1.1" xmlns="http://www.w3.org/2000/svg" p-id="28883" xmlns:xlink="http://www.w3.org/1999/xlink" width="128" height="128"><defs><style type="text/css"></style></defs><path d="M508.693333 27.093333A483.413333 483.413333 0 1 0 992 510.506667 483.413333 483.413333 0 0 0 508.693333 27.093333z" fill="#01579B" p-id="28884"></path><path d="M763.093333 429.013333c0-15.253333 0-73.706667-38.186666-119.573333a18.56 18.56 0 0 1-5.013334-10.666667c-2.56-2.56-2.56-5.12-5.12-10.133333l-5.12-7.68-5.013333-7.68a125.653333 125.653333 0 0 1-7.68-12.693333 50.666667 50.666667 0 0 1-2.56-53.333334c2.56-5.013333 7.68-10.133333 10.666667-15.253333-2.56-2.56-5.12-5.12-7.68-5.12h-2.986667a138.666667 138.666667 0 0 1-20.373333-15.253333l-17.813334-12.693334c-12.693333-7.573333-20.266667-10.133333-20.266666-12.693333a48.106667 48.106667 0 0 1-25.493334-48.32 49.066667 49.066667 0 0 1 35.626667-43.306667 108.16 108.16 0 0 1 12.693333-2.56l-2.56-2.56a471.36 471.36 0 0 0-147.52-22.4 485.12 485.12 0 0 0-432.533333 266.666667v12.8c0 183.146667 160 330.666667 356.16 330.666667 150.186667 0 277.333333-86.506667 330.666667-208.64z m0 0" fill="#0277BD" p-id="28885"></path><path d="M661.333333 103.36a80 80 0 0 1 22.933334-2.56h25.386666a172.906667 172.906667 0 0 1 33.066667 5.12 228.906667 228.906667 0 0 1 38.186667 12.693333A169.386667 169.386667 0 0 1 821.333333 141.546667a430.506667 430.506667 0 0 1 38.186667 30.506666 246.4 246.4 0 0 1 33.066667 38.186667c7.573333 15.253333 17.813333 28.053333 25.386666 43.306667a337.28 337.28 0 0 1 17.813334 45.76 345.173333 345.173333 0 0 1 10.666666 43.2 228.8 228.8 0 0 1 2.88 38.186666v17.813334a33.066667 33.066667 0 0 1-2.453333 15.253333c0 10.666667-2.56 17.813333-2.56 25.493333a70.506667 70.506667 0 0 1-2.56 20.373334 123.306667 123.306667 0 0 1-10.666667-20.373334 104.533333 104.533333 0 0 1-10.666666-22.933333 265.706667 265.706667 0 0 0-12.693334-27.946667c-5.12-10.666667-10.666667-20.373333-15.253333-33.066666-5.12-10.666667-12.8-22.933333-17.813333-35.626667a263.893333 263.893333 0 0 0-20.373334-35.626667 369.706667 369.706667 0 0 0-22.293333-33.066666 143.573333 143.573333 0 0 0-25.386667-30.506667A289.813333 289.813333 0 0 0 778.666667 192a132.053333 132.053333 0 0 0-27.946667-25.386667 193.6 193.6 0 0 0-28.053333-20.373333 149.333333 149.333333 0 0 0-25.386667-17.813333 208.64 208.64 0 0 0-20.373333-12.693334A109.226667 109.226667 0 0 0 661.333333 103.36z m0 0" fill="#FFF176" p-id="28886"></path><path d="M994.666667 347.626667A328.533333 328.533333 0 0 0 938.666667 205.12a290.133333 290.133333 0 0 0-33.066667-38.08 145.386667 145.386667 0 0 1-15.253333-12.8 114.453333 114.453333 0 0 0 2.56 20.373333c2.453333 12.693333 2.453333 28.053333 5.013333 48.32 2.56 10.666667 2.56 20.373333 5.12 30.613334A185.173333 185.173333 0 0 0 867.413333 213.333333 193.813333 193.813333 0 0 0 832 187.306667c-12.693333-5.013333-17.813333-7.573333-17.813333-7.573334a82.88 82.88 0 0 1 5.12 15.253334c2.56 10.133333 7.573333 22.933333 12.693333 40.746666s12.693333 40.64 20.373333 64a236.48 236.48 0 0 0-45.76-42.666666 167.253333 167.253333 0 0 0-45.866666-20.373334 81.6 81.6 0 0 0-22.826667-5.12 65.92 65.92 0 0 1 10.666667 15.253334 106.666667 106.666667 0 0 1 10.666666 17.813333c5.12 7.68 7.68 15.253333 12.8 22.933333a529.706667 529.706667 0 0 1 25.386667 53.333334c5.12 10.133333 7.68 20.266667 12.693333 30.506666 2.56 10.133333 10.666667 20.373333 12.8 33.066667 5.013333 10.133333 7.573333 20.373333 12.693334 33.066667 2.56 10.666667 7.68 20.373333 10.666666 33.066666 2.56 10.666667 7.68 20.373333 10.666667 30.506667a93.76 93.76 0 0 0 10.666667 28.053333c7.68 17.813333 12.8 33.066667 17.813333 42.666667l4.906667 14.826667s2.56-5.013333 7.573333-17.813334a47.253333 47.253333 0 0 0 5.12-20.266666 91.306667 91.306667 0 0 0 5.12-28.053334c0-7.573333 2.56-15.253333 2.56-22.826666a100.586667 100.586667 0 0 0 5.013333 12.693333l7.68-15.253333a117.333333 117.333333 0 0 0 7.573334-17.813334v-2.56a42.666667 42.666667 0 0 0 2.56 17.813334c0 10.666667 2.56 17.813333 2.56 25.386666v22.933334a70.506667 70.506667 0 0 0 2.56 20.48 153.6 153.6 0 0 0 12.693333-15.253334c2.56-5.12 7.68-10.666667 12.8-17.813333a257.813333 257.813333 0 0 0 12.693333-25.493333 129.173333 129.173333 0 0 0 10.666667-33.066667l7.68-38.186667a216.853333 216.853333 0 0 0 2.56-40.64 122.453333 122.453333 0 0 0-2.56-43.306666z m0 0" fill="#FDD835" p-id="28887"></path><path d="M1020.053333 403.626667a70.506667 70.506667 0 0 0-2.56-20.373334s-5.013333 7.68-12.693333 17.813334c-7.573333 12.693333-15.253333 27.946667-25.386667 48.32-7.68 17.813333-17.813333 38.186667-28.053333 58.56a391.786667 391.786667 0 0 0-2.026667-56c-2.453333-15.253333-5.013333-27.946667-7.573333-40.64-5.12-12.8-7.68-25.493333-12.693333-35.626667a232.853333 232.853333 0 0 0-25.493334-50.88 100.906667 100.906667 0 0 0-12.693333-17.813333s-2.56 30.506667-2.56 76.266666c0 22.933333-2.56 45.76-5.12 73.813334 0 12.693333-2.56 25.386667-2.56 40.746666a220.48 220.48 0 0 1-5.973333 40.64v10.666667a145.28 145.28 0 0 0-20.373334-61.12 123.626667 123.626667 0 0 0-25.493333-38.186667 59.306667 59.306667 0 0 0-15.253333-15.253333v17.813333a292.586667 292.586667 0 0 1-2.56 43.306667c-2.56 33.066667-7.573333 76.266667-12.693334 117.333333a126.826667 126.826667 0 0 0-5.12 30.506667 133.013333 133.013333 0 0 0-5.013333 30.506667c-2.56 10.666667-5.12 20.373333-7.68 28.053333a111.146667 111.146667 0 0 0-5.12 25.386667c-2.453333 7.68-2.453333 17.813333-5.013333 22.933333-2.56 7.573333-2.56 12.693333-5.12 20.373333a114.453333 114.453333 0 0 0-2.56 20.373334 113.28 113.28 0 0 0 15.253333-10.666667 171.733333 171.733333 0 0 0 35.626667-30.506667c5.12-7.68 12.693333-15.253333 20.373333-25.493333 5.12-10.666667 12.693333-17.813333 17.813333-27.946667 0 7.68-2.56 15.253333-2.56 22.933334-2.56 7.573333-2.56 17.813333-5.12 22.826666a83.306667 83.306667 0 0 0-5.013333 22.933334c2.56-2.56 10.666667 0 17.813333 2.56a8.96 8.96 0 0 1-2.56 5.12l-7.68 22.826666c-5.013333 12.8-7.573333 20.373333-7.573333 20.373334a72.853333 72.853333 0 0 0 17.813333-10.666667c5.013333-5.12 12.693333-7.68 20.373334-15.253333A98.666667 98.666667 0 0 0 900.48 768c7.68-7.68 15.253333-17.813333 25.493333-27.946667 7.573333-10.666667 15.253333-22.933333 22.826667-35.626666a465.066667 465.066667 0 0 0 38.186667-81.493334 549.546667 549.546667 0 0 0 25.493333-86.506666c5.013333-27.946667 7.573333-53.333333 10.666667-76.266667a357.12 357.12 0 0 0-2.56-56z m0 0" fill="#FFB300" p-id="28888"></path><path d="M951.36 673.28c-10.666667 5.12-20.373333 15.253333-35.626667 25.493333a650.666667 650.666667 0 0 0-66.133333 58.56c2.56-7.573333 7.68-15.253333 10.666667-22.826666a334.826667 334.826667 0 0 0 12.693333-61.12 204.48 204.48 0 0 0-2.56-42.666667 80 80 0 0 0-5.12-17.813333 100.16 100.16 0 0 0-10.666667 12.693333c-5.12 7.68-15.253333 20.373333-25.493333 33.066667s-20.373333 30.506667-30.506667 45.866666c-2.56 2.453333-2.56 5.013333-5.12 7.573334a155.52 155.52 0 0 0 5.12-48.32 185.28 185.28 0 0 0-10.133333-56 158.613333 158.613333 0 0 0-17.813333-35.626667 48.96 48.96 0 0 0-7.68-10.133333 82.88 82.88 0 0 0-5.12 15.253333c-2.453333 7.68-7.573333 20.373333-12.693334 35.626667-5.12 12.693333-7.573333 27.946667-12.693333 45.76-2.56 7.68-5.12 15.253333-7.68 25.493333a183.253333 183.253333 0 0 1-7.466667 19.84c-48.32 48.32-106.666667 61.013333-162.88 64a292.906667 292.906667 0 0 1-83.946666-12.693333 298.666667 298.666667 0 0 1-106.666667-66.24 251.626667 251.626667 0 0 0 132.16-23.36l64-40.746667a35.2 35.2 0 0 1 22.933333 0c15.253333-2.56 20.266667-10.666667 15.253334-25.386667a121.493333 121.493333 0 0 0-33.066667-28.053333c-33.066667-17.813333-66.24-15.253333-101.76 7.68-33.173333 17.813333-64 15.253333-96.746667-2.56-78.826667-40.746667-48.32-145.066667 35.626667-91.626667 5.12-25.386667-2.56-53.333333-17.813333-81.386666-73.813333-134.826667 10.666667-244.266667 38.186666-262.08a233.28 233.28 0 0 0-137.386666 66.133333C22.72 177.173333 0 431.573333 0 434.133333l30.613333-27.946666a328.106667 328.106667 0 0 0-20.586666 86.506666c-10.666667 99.2 17.813333 195.84 83.946666 292.586667 101.76 129.706667 262.08 208.64 414.72 208.64 173.013333 0 284.906667-64 358.72-145.066667l15.253334-15.253333a477.013333 477.013333 0 0 0 43.306666-56 284.906667 284.906667 0 0 0 27.946667-55.893333c5.12-17.813333 10.666667-33.173333 12.693333-43.306667v-15.253333a127.146667 127.146667 0 0 0-15.253333 10.133333z m0 0" fill="#FF9800" p-id="28889"></path><path d="M203.413333 612.266667C198.293333 434.133333 312.746667 449.386667 371.306667 469.333333c-40.64-7.146667-58.56 30.933333-40.64 66.56a129.173333 129.173333 0 0 0-127.253334 76.373334z m160 73.813333a252.693333 252.693333 0 0 0 132.586667-22.933333l64-40.746667a21.333333 21.333333 0 0 1 17.813333 0c-73.813333-43.2-152.64 48.32-325.653333 20.373333 42.666667 33.066667 111.893333 43.306667 111.893333 43.306667z m-4.8-417.28a222.186667 222.186667 0 0 0 27.946667 132.266667c35.626667-20.373333 71.253333-43.2 71.253333-43.2s50.88-50.88 0-50.88a138.666667 138.666667 0 0 1-99.2-38.186667zM160 215.36c-22.933333-20.373333-58.56-61.12-58.56-112 0 0-61.013333 99.306667-38.08 178.133333a225.28 225.28 0 0 1 96.64-66.133333z m0 0" fill="#EF6C00" p-id="28890"></path><path d="M386.56 401.066667c35.626667-20.373333 71.253333-43.2 71.253333-43.2l10.133334-10.666667-10.133334-15.253333h-96.746666a253.226667 253.226667 0 0 0 25.493333 68.693333z m0 0" fill="#FFCC80" p-id="28891"></path><path d="M457.813333 306.986667a70.186667 70.186667 0 0 1-22.933333-2.56l-2.56 2.56a299.733333 299.733333 0 0 1 25.493333 50.88s50.88-50.88 0-50.88z m0 0" fill="#5D4037" p-id="28892"></path></svg>