<?xml version="1.0" standalone="no"?><!DOCTYPE svg PUBLIC "-//W3C//DTD SVG 1.1//EN" "http://www.w3.org/Graphics/SVG/1.1/DTD/svg11.dtd"><svg t="1645695521952" class="icon" viewBox="0 0 1024 1024" version="1.1" xmlns="http://www.w3.org/2000/svg" p-id="9656" xmlns:xlink="http://www.w3.org/1999/xlink" width="128" height="128"><defs><style type="text/css"></style></defs><path d="M477.934 330.487a50.844 50.844 0 0 1-71.181-71.69L512 152.531A254.22 254.22 0 0 1 871.468 512L762.66 618.773a50.844 50.844 0 1 1-71.69-71.69L797.744 440.31a152.532 152.532 0 0 0-215.58-215.58zM548.1 691.988a50.844 50.844 0 1 1 71.69 70.673L512.51 869.942A254.22 254.22 0 0 1 152.531 512l107.281-105.247a50.844 50.844 0 1 1 72.199 69.656L224.222 583.69a152.532 152.532 0 0 0 215.58 215.58zM421.498 675.21a50.844 50.844 0 1 1-71.69-71.69L601.485 351.84a50.844 50.844 0 0 1 71.69 71.69z" fill="#a3a3a3" p-id="9657"></path></svg>