<svg width="24" height="24" viewBox="0 0 24 24" fill="none" xmlns="http://www.w3.org/2000/svg">
<path d="M13.25 22L14.5 17H17.5562C18.806 15.6347 19.4994 13.851 19.5 12C19.5 8.5875 17.215 5.61875 14.095 4.695C13.585 4.545 13.25 4.0575 13.25 3.525C13.25 2.71625 14.0212 2.09375 14.7975 2.32125C18.9575 3.54625 22 7.44875 22 12C22 17.0463 18.1075 21.3162 13.25 22ZM2 12C2 6.955 5.8925 2.68375 10.75 2L9.5 7H6.44375C5.194 8.36534 4.50058 10.149 4.5 12C4.5 15.4125 6.785 18.3813 9.905 19.3038C10.1528 19.3825 10.3688 19.5389 10.5209 19.7498C10.6731 19.9607 10.7534 20.215 10.75 20.475C10.75 21.2838 9.97875 21.9062 9.2025 21.6787C5.0425 20.4538 2 16.5513 2 12Z" fill="white"/>
</svg>
