<svg width="24" height="24" viewBox="0 0 24 24" fill="none" xmlns="http://www.w3.org/2000/svg">
<path d="M20.3465 11.4191L15.5849 6.33495C15.4377 6.1759 15.2451 6.06618 15.0332 6.02079C14.8246 5.97758 14.6077 6.00211 14.414 6.09079C14.2148 6.18277 14.0476 6.33223 13.934 6.51995C13.8174 6.71162 13.754 6.93662 13.754 7.16579V9.72412C11.604 9.90496 9.54737 10.745 7.82237 12.1466C6.09737 13.5483 4.7757 15.4533 4.01237 17.6383C3.99744 17.6841 3.99599 17.7333 4.0082 17.78C4.01975 17.8261 4.04503 17.8677 4.0807 17.8991C4.11452 17.9292 4.15749 17.9471 4.20269 17.9498C4.24789 17.9525 4.29268 17.94 4.32987 17.9141C7.17737 16.0308 10.4207 14.9616 13.754 14.8083V17.3341C13.754 17.5641 13.8165 17.7883 13.934 17.98C14.0515 18.1716 14.219 18.3208 14.414 18.4091C14.6099 18.4983 14.8257 18.5225 15.0332 18.4791C15.2415 18.4358 15.4332 18.3266 15.5849 18.165L20.3465 13.0816C20.4482 12.9725 20.5282 12.8433 20.5832 12.7C20.6945 12.4103 20.6945 12.0896 20.5832 11.8C20.5294 11.659 20.4491 11.5298 20.3465 11.4191Z" fill="white"/>
</svg>
