<?xml version="1.0" standalone="no"?><!DOCTYPE svg PUBLIC "-//W3C//DTD SVG 1.1//EN" "http://www.w3.org/Graphics/SVG/1.1/DTD/svg11.dtd"><svg t="1611655016475" class="icon" viewBox="0 0 1024 1024" version="1.1" xmlns="http://www.w3.org/2000/svg" p-id="32430" xmlns:xlink="http://www.w3.org/1999/xlink" width="128" height="128"><defs><style type="text/css"></style></defs><path d="M227.84 389.12c2.56 20.48 5.12 43.52 5.12 64 2.56 40.96-12.8 71.68-38.4 94.72-20.48 17.92-43.52 30.72-69.12 38.4-28.16 7.68-53.76-20.48-46.08-56.32 5.12-20.48 10.24-40.96 17.92-56.32 20.48-43.52 35.84-89.6 46.08-138.24 2.56-7.68 5.12-17.92 7.68-25.6 5.12-15.36 20.48-23.04 33.28-17.92 10.24 2.56 17.92 7.68 28.16 12.8 10.24 10.24 23.04 17.92 38.4 28.16 7.68-10.24 15.36-20.48 25.6-30.72 30.72-35.84 66.56-58.88 104.96-79.36C440.32 189.44 501.76 163.84 565.76 145.92c30.72-7.68 58.88-12.8 89.6-15.36 35.84-2.56 71.68-2.56 107.52-2.56 46.08 2.56 92.16 7.68 135.68 33.28 23.04 12.8 43.52 33.28 46.08 64 2.56 23.04 2.56 46.08 0 66.56-2.56 38.4-15.36 71.68-28.16 107.52-2.56 10.24-12.8 15.36-20.48 20.48-20.48 12.8-40.96 20.48-64 25.6-61.44 12.8-122.88 7.68-181.76-17.92-35.84-15.36-64-40.96-89.6-74.24-2.56-2.56-5.12-7.68-7.68-10.24s-10.24-2.56-10.24-2.56c-2.56 7.68-5.12 15.36-2.56 17.92 0 5.12 5.12 10.24 7.68 12.8C586.24 419.84 629.76 450.56 683.52 465.92c64 17.92 128 15.36 192-7.68 2.56-2.56 7.68-2.56 10.24-5.12s7.68-5.12 10.24-5.12c-7.68 12.8-12.8 23.04-20.48 35.84-48.64 76.8-112.64 133.12-189.44 158.72-51.2 17.92-99.84 15.36-151.04 0C450.56 619.52 373.76 576 307.2 509.44c-20.48-20.48-40.96-43.52-53.76-71.68-5.12-10.24-10.24-23.04-12.8-33.28-2.56-7.68-5.12-12.8-12.8-15.36zM839.68 151.04c-10.24 2.56-20.48 2.56-30.72 5.12-15.36 2.56-28.16 7.68-40.96 20.48-10.24 10.24-10.24 25.6 2.56 33.28l15.36 7.68c23.04 7.68 48.64 5.12 71.68 2.56 12.8-5.12 23.04-7.68 35.84-15.36 7.68-2.56 12.8-12.8 12.8-23.04s-7.68-15.36-15.36-17.92c-15.36-7.68-33.28-10.24-51.2-12.8zM558.08 281.6c15.36 0 25.6-12.8 25.6-25.6 0-15.36-12.8-28.16-25.6-25.6-15.36 0-25.6 12.8-25.6 25.6 2.56 12.8 12.8 25.6 25.6 25.6z m110.08 640H650.24c-2.56 0-5.12-2.56-5.12-5.12-5.12-20.48-7.68-43.52-12.8-64-2.56-7.68-5.12-15.36-10.24-23.04-5.12-10.24-15.36-12.8-23.04-2.56s-12.8 20.48-17.92 33.28l-15.36 53.76c0 5.12-2.56 7.68-10.24 7.68H542.72c0-30.72 2.56-61.44 2.56-92.16l-15.36 7.68c-7.68 7.68-15.36 15.36-23.04 25.6-12.8 15.36-25.6 33.28-40.96 51.2-7.68 10.24-10.24 12.8-25.6 7.68 17.92-33.28 33.28-66.56 51.2-102.4-15.36-5.12-30.72-12.8-35.84-33.28-5.12-12.8-2.56-25.6 0-38.4 0 5.12 2.56 7.68 2.56 12.8 5.12 23.04 23.04 33.28 40.96 28.16 5.12-2.56 10.24-7.68 12.8-12.8 15.36-30.72 33.28-64 48.64-94.72 2.56-5.12 5.12-7.68 10.24-5.12 25.6 5.12 51.2 10.24 76.8 2.56 5.12-2.56 10.24-5.12 17.92-7.68 2.56 81.92 2.56 166.4 2.56 250.88z" fill="#e12319" p-id="32431"></path></svg>