<svg width="192" height="108" viewBox="0 0 192 108" fill="none" xmlns="http://www.w3.org/2000/svg">
<rect width="192" height="108" rx="10" fill="#EFEFEF"/>
<mask id="mask0" style="mask-type:alpha" maskUnits="userSpaceOnUse" x="0" y="0" width="192" height="108">
<rect width="192" height="108" rx="10" fill="#EFEFEF"/>
</mask>
<g mask="url(#mask0)">
<path opacity="0.2" d="M0 7C0 7 35.1022 48.45 71.1893 69.3824C109.982 91.884 188 108 188 108H10C4.47715 108 0 103.523 0 98V7Z" fill="#CECECE"/>
<path opacity="0.2" d="M0 38C0 38 27.8895 60.8443 68.4218 74.4235C108.876 87.9765 139.84 94.3294 205.765 96.0235C222.044 99.7045 205.765 110 205.765 110L9.8971 107.984C4.41469 107.928 0 103.467 0 97.9847V38Z" fill="#CECECE"/>
</g>
<path d="M72.47 47.006V62H74.927V55.364H82.529V62H84.986V47.006H82.529V53.264H74.927V47.006H72.47ZM89.3399 46.712C88.8779 46.712 88.4999 46.859 88.1849 47.153C87.8699 47.447 87.7229 47.825 87.7229 48.287C87.7229 48.749 87.8699 49.127 88.1849 49.442C88.4999 49.736 88.8779 49.883 89.3399 49.883C89.8019 49.883 90.1799 49.736 90.4949 49.442C90.8099 49.148 90.9779 48.749 90.9779 48.287C90.9779 47.825 90.8099 47.447 90.5159 47.153C90.2009 46.859 89.8019 46.712 89.3399 46.712ZM88.1429 51.143V62H90.5369V51.143H88.1429ZM93.7161 47.006V62H96.1731V56.246H99.8901C103.544 56.246 105.371 54.692 105.371 51.605C105.371 48.539 103.544 47.006 99.9321 47.006H93.7161ZM96.1731 49.106H99.7431C100.814 49.106 101.612 49.295 102.116 49.694C102.62 50.072 102.893 50.702 102.893 51.605C102.893 52.508 102.641 53.159 102.137 53.558C101.633 53.936 100.835 54.146 99.7431 54.146H96.1731V49.106ZM113.987 46.712C111.593 46.712 109.766 47.489 108.506 49.085C107.393 50.471 106.847 52.298 106.847 54.524C106.847 56.792 107.372 58.598 108.443 59.942C109.661 61.496 111.53 62.294 114.029 62.294C115.646 62.294 117.032 61.832 118.187 60.908C119.426 59.921 120.203 58.556 120.539 56.792H118.145C117.851 57.926 117.347 58.787 116.633 59.354C115.961 59.858 115.079 60.131 114.008 60.131C112.37 60.131 111.152 59.606 110.375 58.598C109.661 57.653 109.304 56.288 109.304 54.524C109.304 52.802 109.661 51.458 110.396 50.492C111.194 49.4 112.37 48.875 113.945 48.875C114.995 48.875 115.856 49.085 116.528 49.547C117.221 50.009 117.683 50.723 117.935 51.71H120.329C120.098 50.198 119.447 48.98 118.355 48.098C117.221 47.174 115.751 46.712 113.987 46.712Z" fill="white"/>
</svg>
