<?xml version="1.0" standalone="no"?><!DOCTYPE svg PUBLIC "-//W3C//DTD SVG 1.1//EN" "http://www.w3.org/Graphics/SVG/1.1/DTD/svg11.dtd"><svg t="1645857308546" class="icon" viewBox="0 0 1024 1024" version="1.1" xmlns="http://www.w3.org/2000/svg" p-id="1050" xmlns:xlink="http://www.w3.org/1999/xlink" width="128" height="128"><defs><style type="text/css"></style></defs><path d="M150.56 179.04c-3.6 2.64-3.2 663.36 0.4 665.68s240.72 1.84 242.96 0 1.76-40 1.76-165.76c0-90.24 0-164 0.64-164a52.4 52.4 0 0 1 11.68 11.2l8.96 13.04c8 11.2 19.44 28.08 22.48 32.56l9.44 13.76 12.72 18.64c2.96 4.48 6.4 9.28 8 10.72a11.28 11.28 0 0 1 2.16 3.2 112.8 112.8 0 0 0 10.4 15.28 77.44 77.44 0 0 1 8.4 12.24s3.92 6.32 8.8 13.36l11.2 16a20.24 20.24 0 0 0 4.24 4.8 3.84 3.84 0 0 1 1.84 2.64 18.8 18.8 0 0 0 3.28 6.08c1.76 2.48 3.92 5.6 4.72 6.88q4.72 7.52 10.08 14.48 2.48 3.2 4.8 6.48c14.32 21.6 16 24.72 22.08 32.8s24 34.16 26.08 37.84l6.16 8.96c2.16 3.12 6.48 9.52 9.6 14.24a232 232 0 0 0 12.56 19.68 24.8 24.8 0 0 1 4 6.24 20.16 20.16 0 0 0 4.48 5.6l4.48 4.48H751.2c106.8 0 122.4-0.64 123.6-2.56s1.28-126.08 1.04-332.96V179.84H627.52v160.72c0 171.92 0 170.8-6.32 165.44a6.24 6.24 0 0 1-2.32-3.44 9.12 9.12 0 0 0-2.4-4.16 37.6 37.6 0 0 1-4-5.44c-1.92-3.36-16-24-16.8-24.72a232 232 0 0 1-16-24.72 1.36 1.36 0 0 0-1.44-1.28c-0.8 0-2.48-2.08-3.76-4.56a50.88 50.88 0 0 0-3.6-6.16 166.08 166.08 0 0 1-12.88-18.24c-2.72-4.4-6.24-9.68-8-11.76s-3.28-4.32-4.8-6.48c-14.88-22.56-24-35.92-24.96-36.72s-18.16-26.16-23.12-34C496 322.4 491.92 316.72 488 312l-13.76-19.84L461.12 272c-13.92-20.08-20-28.88-21.36-31.12-3.12-4.96-9.44-14.16-13.6-19.76a92 92 0 0 1-6.72-10.48c-1.36-2.56-2.96-4.72-3.6-4.72s-1.68-1.44-2.24-3.28a27.6 27.6 0 0 0-4.08-7.12l-5.76-7.2a42.96 42.96 0 0 1-4.24-6.64l-1.52-3.28H277.52c-66.32 0-121.44 0-122.48-0.72a5.52 5.52 0 0 0-4.48 1.12" fill="#04CF5A" p-id="1051"></path></svg>