<svg width="40" height="40" viewBox="0 0 40 40" fill="none" xmlns="http://www.w3.org/2000/svg">
<circle cx="20" cy="20" r="20" fill="#4396F3"/>
<path d="M27.448 22.5294C27.0676 21.2444 26.6301 20.1645 25.9573 18.3971C26.0619 13.7548 24.2264 10 19.999 10C15.724 10 13.9289 13.8298 14.0431 18.3971C13.3678 20.167 12.9327 21.2394 12.5523 22.5294C11.7439 25.2667 12.0054 26.3992 12.2052 26.4242C12.6331 26.4792 13.8719 24.3643 13.8719 24.3643C13.8719 25.5892 14.471 27.1867 15.7692 28.3391C15.1415 28.5416 13.7316 29.0866 14.0668 29.684C14.3379 30.1665 18.7317 29.9915 19.999 29.8415C21.2662 29.9915 25.6601 30.1665 25.9311 29.684C26.2664 29.0891 24.8541 28.5416 24.2288 28.3391C25.5269 27.1842 26.1261 25.5867 26.1261 24.3643C26.1261 24.3643 27.3648 26.4792 27.7928 26.4242C27.9949 26.3967 28.2564 25.2642 27.448 22.5294Z" fill="white"/>
</svg>
