<?xml version="1.0" standalone="no"?><!DOCTYPE svg PUBLIC "-//W3C//DTD SVG 1.1//EN" "http://www.w3.org/Graphics/SVG/1.1/DTD/svg11.dtd"><svg t="1611728333849" class="icon" viewBox="0 0 1024 1024" version="1.1" xmlns="http://www.w3.org/2000/svg" p-id="3134" xmlns:xlink="http://www.w3.org/1999/xlink" width="128" height="128"><defs><style type="text/css"></style></defs><path d="M515.2768 153.8048c0 7.099733-0.2048 12.4928 0 17.885867 0.4096 9.352533 4.9152 13.038933 13.653333 8.465066 11.741867-6.3488 22.801067-14.267733 33.109334-22.801066 7.304533-6.007467 12.834133-14.1312 19.182933-21.367467l4.096 1.8432c0 7.031467-0.341333 14.062933 0 21.162667 0.682667 12.0832 3.959467 13.7216 13.9264 7.441066 7.3728-4.642133 14.677333-9.557333 24.9856-13.1072-2.2528 10.786133-3.549867 21.981867-7.099733 32.3584-3.2768 9.762133-0.4096 15.36 7.850666 19.797334 5.802667 3.140267 11.6736 6.212267 16.930134 10.0352 7.168 5.256533 11.264 2.525867 14.5408-4.164267A328.362667 328.362667 0 0 0 689.493333 108.475733c2.184533-16.315733 4.778667-32.768 9.0112-48.605866 3.2768-12.288 10.103467-13.175467 19.456-4.437334 15.906133 14.9504 23.074133 34.679467 27.716267 54.954667 7.304533 31.744 9.966933 63.965867 1.706667 96.256a143.496533 143.496533 0 0 1-28.4672 54.8864c-14.062933 17.476267-11.810133 25.1904 9.0112 34.542933 5.802667 2.525867 11.6736 6.5536 15.428266 11.4688 5.597867 7.304533 9.0112 16.110933 20.411734 16.384 1.570133 0.068267 4.5056 5.666133 4.096 8.192-0.682667 4.096-2.8672 9.8304-6.007467 11.127467-7.304533 3.003733-9.147733 8.260267-10.513067 15.018667-3.822933 18.909867-9.079467 37.546667-11.810133 56.5248-0.8192 5.802667 3.549867 13.380267 7.509333 18.773333 18.8416 25.736533 40.413867 49.7664 57.275734 76.663467 35.498667 56.661333 49.629867 119.3984 42.871466 185.890133-13.9264 138.4448-87.927467 231.150933-217.7024 279.005867-46.421333 17.134933-94.685867 21.572267-144.520533 15.018666-98.030933-12.970667-174.148267-60.6208-230.1952-140.9024a260.437333 260.437333 0 0 1-44.919467-110.318933C205.482667 710.109867 200.704 680.686933 201.796267 651.741867c2.4576-66.218667 26.624-125.201067 68.8128-176.605867 10.717867-13.1072 21.162667-26.4192 32.085333-39.458133a32.221867 32.221867 0 0 0 6.826667-30.037334c-3.549867-16.042667-5.188267-32.5632-7.236267-48.9472-0.8192-6.690133-2.321067-11.332267-10.103467-13.243733-3.140267-0.750933-6.007467-6.621867-7.031466-10.6496-1.4336-5.9392 2.2528-8.533333 8.328533-9.762133 3.822933-0.8192 9.216-3.8912 10.24-7.099734 3.6864-11.8784 12.424533-17.066667 22.9376-20.8896 19.182933-6.9632 21.640533-15.701333 9.147733-31.812266-28.672-36.727467-37.410133-78.506667-32.3584-124.245334 2.798933-25.258667 11.537067-48.5376 22.528-71.133866 1.6384-3.413333 3.4816-7.509333 6.485334-9.4208 4.9152-3.072 11.264-6.894933 16.110933-5.9392 3.822933 0.682667 8.055467 7.918933 9.0112 12.834133 5.051733 25.258667 7.509333 51.2 13.789867 76.117333 6.144 24.1664 15.633067 47.5136 23.688533 71.133867 2.730667 7.850667 8.055467 8.260267 14.813867 4.983467 35.2256-17.271467 70.997333-33.928533 100.352-60.757334 1.092267-0.955733 2.525867-1.501867 5.051733-3.003733z m127.522133 145.134933c-25.463467 3.2768-49.493333 7.5776-70.587733 22.254934-16.384 11.332267-21.162667 25.258667-15.496533 44.032 2.2528 7.3728 4.369067 14.7456 7.236266 21.845333 9.8304 24.098133 22.3232 46.011733 48.605867 55.7056 19.797333 7.236267 40.1408 6.007467 60.552533 3.2768a60.552533 60.552533 0 0 0 47.581867-32.768c11.537067-21.504 15.633067-45.124267 14.267733-69.358933-0.887467-15.701333-7.645867-29.149867-24.234666-32.836267-22.459733-4.983467-45.329067-8.192-67.925334-12.151467z m-245.76 149.435734c37.341867-0.068267 58.5728-11.605333 76.253867-41.096534 5.461333-9.216 10.171733-18.909867 13.9264-28.945066 11.8784-31.402667 4.232533-52.701867-25.941333-64.989867a168.072533 168.072533 0 0 0-124.245334-2.048c-12.970667 4.778667-21.845333 14.336-22.528 28.330667-1.706667 29.696 1.365333 58.709333 19.6608 83.694933 16.247467 22.254933 41.1648 23.3472 62.805334 25.053867z m-75.639466 39.389866c-8.533333 7.714133-15.018667 12.151467-19.6608 18.0224a259.413333 259.413333 0 0 0-52.4288 116.394667 277.504 277.504 0 0 0 3.003733 109.841067c7.7824 35.703467 23.415467 67.310933 44.373333 96.597333 3.4816 4.778667 8.874667 8.192 15.701334 14.336 4.027733-34.065067 7.9872-63.965867 10.990933-94.0032 2.4576-24.507733 2.4576-49.220267 5.666133-73.591467 7.3728-56.251733 5.051733-112.2304-1.024-168.277333-0.682667-6.007467-3.959467-11.6736-6.621866-19.319467zM804.181333 661.230933c-2.2528-13.858133-4.7104-38.024533-10.513066-61.371733-8.942933-36.113067-22.528-70.4512-51.4048-96.187733-3.4816-3.072-8.055467-4.983467-12.0832-7.3728-2.184533 4.7104-5.7344 9.284267-6.280534 14.199466-2.184533 19.933867-4.9152 39.936-4.642133 59.869867 0.6144 38.5024 2.730667 77.0048 4.778667 115.5072 0.955733 17.271467 3.072 34.542933 4.778666 51.746133 2.730667 27.989333 5.256533 55.9104 8.328534 83.831467 0.546133 4.778667 3.140267 9.489067 4.778666 14.199467 3.8912-2.8672 7.7824-5.666133 11.4688-8.669867 1.160533-0.955733 1.911467-2.4576 2.730667-3.6864 32.9728-45.192533 45.8752-96.6656 48.059733-162.065067zM594.944 510.1568c-13.243733 8.055467-22.664533 15.428267-33.245867 20.002133-12.970667 5.597867-23.552-2.4576-24.576-16.657066a40.618667 40.618667 0 0 1 19.524267-39.185067c8.328533-5.597867 13.380267-13.243733 10.922667-23.483733-2.4576-10.376533-9.489067-16.930133-20.48-17.339734a408.576 408.576 0 0 0-42.666667 0.273067 25.6 25.6 0 0 0-14.9504 7.509333c-10.376533 10.513067-8.465067 22.596267 5.461333 33.245867 13.312 10.103467 20.821333 22.528 19.592534 39.389867-0.955733 14.062933-13.5168 22.254933-26.282667 16.384-7.509333-3.4816-13.7216-9.557333-20.616533-14.336-3.003733-2.116267-6.212267-3.822933-10.6496-6.5536 1.160533 14.062933 8.192 30.037333 20.2752 33.928533 20.206933 6.485333 37.956267 27.989333 62.6688 12.970667 1.2288-0.750933 3.003733-0.477867 4.5056-0.8192 19.6608-4.642133 37.546667-12.0832 46.626133-32.085334 1.570133-3.413333 2.184533-7.236267 3.8912-13.243733z" fill="#F96E10" p-id="3135"></path></svg>