<?xml version="1.0" standalone="no"?><!DOCTYPE svg PUBLIC "-//W3C//DTD SVG 1.1//EN" "http://www.w3.org/Graphics/SVG/1.1/DTD/svg11.dtd"><svg t="1611728328039" class="icon" viewBox="0 0 1024 1024" version="1.1" xmlns="http://www.w3.org/2000/svg" p-id="2843" xmlns:xlink="http://www.w3.org/1999/xlink" width="128" height="128"><defs><style type="text/css"></style></defs><path d="M569.787851 656.383763c-21.47867 6.136763-43.980134 9.716541-66.481598 10.739336-58.810645 2.556985-118.132686-4.602572-174.386347-21.478671-41.42315-11.250732-81.823506-26.592639-120.68967-45.002928 2.045588 36.820577 4.091175 73.641155 6.64816 110.461733 21.990067 9.716541 43.980134 17.898892 66.992995 25.058448 63.924614 21.990067 129.894815 37.331974 196.88781 45.514325 44.491531 4.091175 89.494459 4.091175 133.98599 0 41.42315-3.068381 82.334902-12.273526 121.201068-27.615433 33.240799-12.784923 61.367629-35.286387 81.823505-64.43601 22.501464-37.331974 23.012861-83.357696 2.045588-121.201068-9.205144-15.341907-20.967273-29.661021-34.77499-40.911753-21.47867-17.387495-45.514325-31.706608-71.08417-42.445943-53.696676-21.47867-108.927542-38.866165-165.692599-50.628294-28.12683-5.625366-55.742263-14.319113-81.823506-26.59264-12.273526-5.625366-22.501464-14.319113-30.172417-25.569845-4.602572-7.670954-5.625366-16.876098-2.045588-25.569846 5.625366-10.739335 15.341907-18.410289 26.592639-22.501464 20.455876-7.670954 42.445943-10.739335 64.436011-9.716541 55.230866 1.534191 110.461732 9.205144 164.158408 23.012861 43.980134 10.739335 86.937475 24.035655 128.872021 40.911753l-5.625366-107.393351c-22.501464-8.182351-45.002928-14.83051-67.504392-20.967274-54.719469-14.319113-110.461732-25.569845-166.715392-33.240799-54.208072-8.182351-109.438939-10.227938-164.158408-6.648159-34.77499 2.556985-68.527186 9.716541-101.256588 21.990067-28.638227 10.739335-54.208072 27.615433-75.686743 49.094103-20.967273 20.967273-34.263593 48.07131-38.866165 77.220933-3.579778 19.944479-1.534191 40.400356 5.625366 59.322042 10.739335 21.990067 27.104036 40.911753 48.071309 53.696675 37.843371 23.524258 79.266521 41.42315 122.735259 52.162485 40.400356 11.762129 81.823506 19.944479 122.735258 28.638227 19.433083 4.091175 38.354768 9.716541 56.765057 16.364701 15.853304 5.625366 30.683815 13.807717 43.980134 24.035655 6.64816 5.113969 11.250732 11.762129 13.29632 19.433082 1.022794 7.159557-1.534191 13.807717-7.159557 18.410289-10.227938 8.182351-20.967273 13.29632-32.729402 15.853304z m37.843371 273.597347c-145.748119 32.218005-297.633001-11.762129-402.980765-117.109892-19.944479-19.433083-37.843371-41.42315-53.185278-64.436011-99.211-146.770913-99.211-339.567548 0-486.849858 15.853304-23.012861 33.752196-44.491531 53.185278-64.43601 39.888959-39.888959 86.937475-71.08417 138.588563-93.074238 53.185279-22.501464 110.461732-34.263593 168.249583-34.263593 115.575702 0 226.548831 46.537119 307.86094 128.872021 121.712464 121.201068 160.067233 302.74697 99.211 463.3256-13.807717 36.309181-32.729402 70.572774-55.742263 101.767985-10.739335 14.319113-8.182351 34.263593 5.625366 45.002928l0.511397 0.511397c12.784923 12.273526 33.240799 11.762129 45.514325-1.53419 1.022794-1.022794 2.045588-2.556985 3.068381-4.091176 165.692599-224.503243 117.621289-541.05793-107.393351-706.750529-29.149624-21.47867-60.344835-39.377562-93.074237-54.208072-20.967273-9.716541-42.445943-17.387495-64.436011-23.524258C384.150773-56.503529 104.416663 98.449735 27.19573 366.421716c-12.784923 45.002928-19.433083 91.02865-19.433083 137.565768-0.511397 278.199919 224.503243 504.237353 502.703162 504.74875 54.208072 0 108.416145-8.693747 159.555836-25.569845 18.410289-6.136763 28.12683-25.569845 21.990067-43.980135-0.511397-1.534191-1.022794-3.579778-2.045587-5.113969-7.159557-15.341907-25.058449-22.501464-40.400356-16.364701-14.319113 4.602572-28.638227 8.693747-41.934547 12.273526z m264.392202-64.436011c-37.843371 37.843371-81.312109 69.54998-128.872021 93.585635-16.364701 8.693747-23.012861 29.149624-13.807716 46.025722v0.511397c8.693747 16.364701 28.638227 23.012861 45.002928 14.83051 57.276454-29.661021 109.438939-69.038583 153.419073-116.087098 12.784923-12.273526 13.29632-32.729402 1.022793-45.514325-1.022794-1.022794-2.045588-2.045588-3.068381-2.556985l-4.602572-3.579778c-12.273526-10.227938-30.683815-9.205144-41.42315 2.556984" fill="#E94924" p-id="2844"></path></svg>