<?xml version="1.0" standalone="no"?><!DOCTYPE svg PUBLIC "-//W3C//DTD SVG 1.1//EN" "http://www.w3.org/Graphics/SVG/1.1/DTD/svg11.dtd"><svg t="1645855499001" class="icon" viewBox="0 0 1024 1024" version="1.1" xmlns="http://www.w3.org/2000/svg" p-id="984" xmlns:xlink="http://www.w3.org/1999/xlink" width="128" height="128"><defs><style type="text/css"></style></defs><path d="M0 0m204.8 0l614.4 0q204.8 0 204.8 204.8l0 614.4q0 204.8-204.8 204.8l-614.4 0q-204.8 0-204.8-204.8l0-614.4q0-204.8 204.8-204.8Z" fill="#FFFFFF" p-id="985"></path><path d="M631.4496 374.6304c-0.512 0-0.7168-0.3584-1.024-0.8192l-0.6656-0.9216 9.216-0.512c59.136-3.2256 117.6064-6.4 176.7936-8.8576 0 0.3584 0 0.5632 0.1024 0.768 0.0512 0.256 0.256 0.4608 0.768 0.9216-10.24 6.8608-20.48 13.6704-30.72 18.7904-14.08 7.68-28.672 14.8992-43.008 22.016l-14.1824 7.0144c-1.6896 0.8192-4.2496 1.6896-5.9392 0.8192a482.9184 482.9184 0 0 1-91.3408-39.2192z" fill="#FF3434" p-id="986"></path><path d="M0 861.8496l1024-59.6992v-614.4L0 247.4496v614.4z m525.6704-341.2992c0-13.6704 0-27.3408-2.56-39.2704 0-4.2496 1.6896-5.9904 5.9392-6.8096l99.84-25.6a12.0832 12.0832 0 0 1 2.2016-0.768c0.8704-0.256 1.5872-0.512 2.048-0.9728-17.0496-9.3696-34.0992-18.7392-50.3296-28.9792-11.3664-6.8608-22.016-14.4384-32.6144-22.016-5.3248-3.7888-10.5984-7.5776-16.0256-11.264 0.8704-1.7408 1.7408-3.4304 2.56-4.3008 8.96-14.08 17.92-27.9552 26.88-41.7792 8.96-13.8752 17.92-27.7504 26.88-41.8304 2.56-4.2496 4.3008-5.12 9.4208-3.4304l25.1392 10.24c8.3456 3.4304 16.64 6.8608 25.1904 10.24 2.56 0.8704 5.12 1.7408 7.68 1.7408 20.48-1.28 40.7552-2.3552 61.0304-3.4304 20.2752-1.024 40.4992-2.1504 60.9792-3.4304 11.8784-0.4096 23.7056-1.0752 35.4816-1.7408 11.0592-0.6144 22.016-1.2288 32.768-1.6384l45.2608-2.56c5.12-0.8704 5.9904 0.8192 5.9904 5.12v54.5792a10.9568 10.9568 0 0 1-3.4304 8.5504 411.2384 411.2384 0 0 1-81.92 61.44c-1.6896 0.8704-3.4304 1.6896-5.9904 3.4304 7.0144 1.024 13.3632 2.2528 19.5584 3.4816 4.352 0.9216 8.6016 1.7408 12.9024 2.4576l8.0896 1.0752c23.04 3.072 46.592 6.1952 69.5296 10.0352 1.7408 0 4.3008 2.56 4.3008 3.4304V512l-0.8704 0.8704c-4.2496 0-7.68 0-11.9296-0.8704-47.8208-5.9904-94.72-12.8-140.8-23.9104-7.2704-1.6896-14.336-3.584-21.3504-5.5296-7.0144-1.9456-14.08-3.84-21.3504-5.5296-2.56 0-5.12 0-7.68 0.8192-60.5696 23.04-123.6992 40.1408-187.6992 54.6304-1.7408 0.8704-3.4304 0.8704-5.12 0.8704v-12.8z m-383.1808-115.2c-1.6896 0-3.3792-2.56-2.56-4.3008V343.04c0-0.4096 0.256-0.6656 0.4608-0.8704 0.2048-0.2048 0.4096-0.4096 0.4096-0.8192l25.6 2.56c19.0464 2.3552 38.7584 3.9936 57.856 5.632l4.4544 0.3072c7.68 0.8704 15.5648 1.536 23.4496 2.1504 7.8848 0.6144 15.7696 1.28 23.4496 2.1504 2.56 0 4.3008 0 4.3008 3.3792v58.0608s-0.8704 0.8192-0.8704 1.6896L250.88 414.72c-16.2304-0.8704-33.28-2.56-49.5104-4.2496l-58.88-5.12z m132.3008 53.76c2.56 0 5.12 0.8192 4.2496 3.3792v57.1904a3.072 3.072 0 0 1-0.4096 1.28 3.072 3.072 0 0 0-0.4608 1.28l-69.9904-6.4L138.24 509.44V447.1296c5.12 0 9.3696 0 14.4896 0.8704 15.8208 1.28 31.3856 2.7648 46.9504 4.2496 15.5648 1.536 31.1296 3.0208 46.9504 4.3008l28.16 2.56z m309.76 176.64c0.8192-1.7408 4.2496-4.3008 5.9392-4.3008 8.3456-0.256 16.64-0.6656 24.7808-1.0752 15.1552-0.768 29.952-1.4848 44.3392-1.4848h2.56c-0.512 1.7408-1.1264 2.6624-1.6896 3.584l-0.8704 1.536c-9.3696 15.36-18.5344 30.72-27.6992 46.08-9.216 15.36-18.3808 30.72-27.7504 46.08a8.96 8.96 0 0 1-7.68 4.3008c-11.1104 0.4096-22.016 1.024-32.8704 1.6896-10.8544 0.6144-21.76 1.28-32.8192 1.6896h-5.12c0.512-1.6896 1.1264-2.6624 1.6896-3.584a8811.0592 8811.0592 0 0 1 57.1904-94.5152z m-145.1008 7.68c18.7904 28.9792 37.5808 58.0096 57.1904 87.04 0.512 0.512 0.7168 1.024 1.024 1.792l0.6656 1.5872a10.6496 10.6496 0 0 0-2.56 0.4608c-0.8192 0.2048-1.6896 0.4096-2.56 0.4096-22.1696 1.6896-44.3392 2.56-66.56 3.4304-1.6896 0-5.12-0.8704-5.9392-2.56l-16.7936-25.3952c-13.9776-21.0944-27.8016-41.984-41.2672-63.3856-0.512-0.512-0.7168-1.024-1.024-1.7408-0.1536-0.512-0.3584-1.024-0.6656-1.6384 8.5504-0.8704 17.0496-1.7408 24.7296-1.7408 15.4624 0 30.1056-0.768 45.4656-1.536l2.3552-0.1536c1.6896 0 4.2496 1.6896 5.9392 3.4304z m419.0208-25.6c1.6896 0 3.3792 1.6896 4.2496 2.56 19.6096 29.8496 39.2704 59.6992 58.0096 89.6 0 0.8192 0 1.6896 0.8704 2.56a433.664 433.664 0 0 0-33.28 1.6896c-12.8 0.8704-25.6 1.6896-38.4 1.6896-1.6896 0-5.12-0.8192-5.9904-2.56-9.7792-14.8992-19.3536-29.7984-28.9792-44.7488-9.6256-14.9504-19.2-29.9008-29.0304-44.8512v-0.6144c-0.1024-0.4096-0.256-0.768-0.8704-1.9456 3.584 0 6.8608-0.2048 10.0352-0.4096 2.9696-0.256 5.888-0.4096 8.7552-0.4096l54.6304-2.56z m-376.32-7.68c-5.12 0.2048-10.24 0.4096-15.36 0.8192-29.0304 1.7408-58.0608 3.4304-85.3504 4.3008-11.2128 0-21.6576 0.7168-32.768 1.536l-2.2016 0.1536c-1.7408 0-3.4304 1.6896-4.3008 2.56-26.4192 40.96-61.44 73.3696-96.4096 105.8304l-11.9296 10.5984-11.9808 10.752a38.7584 38.7584 0 0 0-1.3312 0.6656 11.8784 11.8784 0 0 1-4.608 1.8432l-89.6 5.12h-7.68c13.3632-11.9808 26.9312-23.7056 40.448-35.4304 35.4816-30.72 70.7584-61.3376 102.912-95.9488h-14.5408c-34.9696 2.56-69.12 4.2496-104.0896 5.9392-5.9904 0.4608-12.1856 0.6656-18.3296 0.8704-6.1952 0.2048-12.3904 0.4096-18.3808 0.8704-2.56 0-3.3792-0.8704-3.3792-3.4304v-51.2s0.8192-0.8704 0.8192-1.6896c4.3008-0.4608 8.7552-0.6656 13.2608-0.8704 4.4544-0.2048 8.96-0.4096 13.2096-0.8704 14.4896-0.8192 29.0304-1.4848 43.52-2.0992 14.4896-0.6656 29.0304-1.28 43.52-2.1504 25.6-1.6896 52.0704-3.4304 77.6704-4.2496 4.2496 0 5.9392-1.7408 7.68-5.12A298.496 298.496 0 0 0 317.44 498.3296C322.56 460.8 323.4304 422.4 324.2496 384c0-9.8304 0.256-19.8656 0.4608-29.8496 0.2048-10.0352 0.4096-20.0704 0.4096-29.9008 0-4.2496 1.6896-5.9392 5.9904-5.9392l26.0096-1.28 26.0096-1.28c3.0208 0 4.5056 0 5.2224 0.7168 0.768 0.768 0.768 2.2528 0.768 5.2224-0.8704 38.4-1.6896 75.9808-3.4304 114.3808-1.6896 34.9696-4.2496 69.9392-12.8 104.96-1.6896 5.9392-3.3792 11.9296-5.12 18.7392 21.76-1.28 43.3152-2.3552 64.8704-3.3792 21.504-1.0752 43.1104-2.1504 64.8704-3.4304v56.32c-5.12 0.4096-10.24 0.6144-15.36 0.8704z m435.2-22.2208c-20.9408 0.8704-41.8304 1.9456-62.7712 3.0208-20.8896 1.024-41.7792 2.0992-62.6688 2.9696-5.12 0-10.24 0.2048-15.36 0.4096-5.12 0.256-10.24 0.4608-15.36 0.4608-4.3008 0-5.9904 1.6896-5.9904 5.9392v113.5104c0 3.4304 0 5.12-0.8704 5.9904-0.8192 0.8192-2.56 0.8192-5.9392 0.8192l-46.08 2.56h-11.9808V599.04c-28.4672 1.3312-56.6784 2.8672-84.8384 4.4032-26.6752 1.4336-53.248 2.8672-79.872 4.096-0.8192-1.6896-0.8192-3.3792-0.8192-4.2496v-47.7696c0-3.4304 1.6896-5.12 5.12-5.12 11.1104-0.4096 22.016-1.024 32.8704-1.6896 10.8544-0.6656 21.76-1.28 32.8192-1.7408l31.4368-1.6896 63.2832-3.4304v-23.8592l-0.0512-3.072c-0.1024-1.6896-0.1024-2.7136 0.3584-3.2768 0.5632-0.768 1.9968-0.8704 5.2224-1.1776l2.1504-0.1536 51.2-2.56c3.4304-0.4608 5.12-0.6656 5.9904 0.1024 0.8704 0.7168 0.8704 2.4576 0.8704 5.8368v21.3504c0 3.4304 0.8192 4.2496 4.2496 4.2496 12.4416-0.8192 24.7296-1.4336 36.864-2.048 12.8-0.6656 25.5488-1.3312 38.2464-2.2016 12.8 0 25.6-0.8704 38.4-1.6896l43.52-2.56c4.2496 0 5.12 1.6896 5.12 5.12v46.8992c0 4.3008-1.7408 5.12-5.12 5.12z" fill="#FF3434" p-id="987"></path></svg>