<?xml version="1.0" standalone="no"?><!DOCTYPE svg PUBLIC "-//W3C//DTD SVG 1.1//EN" "http://www.w3.org/Graphics/SVG/1.1/DTD/svg11.dtd"><svg t="1611654770376" class="icon" viewBox="0 0 1024 1024" version="1.1" xmlns="http://www.w3.org/2000/svg" p-id="29231" xmlns:xlink="http://www.w3.org/1999/xlink" width="128" height="128"><defs><style type="text/css"></style></defs><path d="M871.936 594.432c-23.552-70.144-95.744-95.744-112.128-97.28-16.384-1.536-31.232-10.752-20.48-29.184 10.752-18.432 31.232-72.704-7.68-110.592-38.912-38.4-123.392-23.552-183.296 1.024-59.904 24.576-56.32 7.68-54.784-9.216 2.048-17.92 34.304-117.248-64.512-129.536-129.024-15.872-294.912 142.848-353.28 234.496C-12.8 592.384 1.536 685.568 1.536 685.568h0.512C13.312 813.568 204.8 916.48 439.296 916.48c201.728 0 371.2-75.776 421.376-179.2 0 0 0-0.512 0.512-1.024 5.12-11.264 9.216-22.528 11.776-34.304 7.168-27.648 12.288-68.096-1.024-107.52zM410.112 860.16c-166.912 0-302.08-89.088-302.08-198.656s135.168-198.656 302.08-198.656 302.08 89.088 302.08 198.656-135.168 198.656-302.08 198.656z" fill="#E71F19" p-id="29232"></path><path d="M821.248 419.84c3.072 1.536 6.144 2.048 9.728 2.048 9.728 0 18.944-5.632 22.528-14.848 6.144-14.848 9.728-30.208 9.728-46.592C863.232 294.4 808.96 240.64 742.4 240.64c-16.384 0-32.256 3.072-47.104 9.216-12.288 5.12-18.432 19.456-12.8 31.744 5.12 12.288 19.456 17.92 32.256 12.8 8.704-3.584 18.432-5.632 28.16-5.632 39.424 0 71.68 31.744 71.68 71.168 0 9.728-2.048 18.944-5.632 27.648-5.12 12.288 0.512 26.624 12.288 31.744-0.512 0.512-0.512 0.512 0 0.512z" fill="#F5AA15" p-id="29233"></path><path d="M740.352 90.624c-27.648 0-54.784 4.096-80.896 11.776-19.456 5.632-30.72 26.112-25.088 45.568 5.632 19.456 26.112 30.208 45.568 24.576 19.456-5.632 39.424-8.704 59.904-8.704 115.712 0 209.92 93.184 209.92 207.872 0 20.48-3.072 40.96-8.704 60.416-5.632 19.456 5.12 39.936 24.576 45.568 3.584 1.024 7.168 1.536 10.752 1.536 15.872 0 30.208-10.24 35.328-26.112 8.192-26.112 12.288-53.76 12.288-81.408 0-155.136-127.488-281.088-283.648-281.088z" fill="#F5AA15" p-id="29234"></path><path d="M382.464 535.552c-89.088 0-161.28 62.464-161.28 139.776 0 77.312 72.192 139.776 161.28 139.776s161.28-62.464 161.28-139.776c-0.512-77.312-72.704-139.776-161.28-139.776z m-52.736 230.912c-31.232 0-56.32-25.088-56.32-55.808s25.088-55.808 56.32-55.808 56.32 25.088 56.32 55.808-25.088 55.808-56.32 55.808zM435.2 665.088c-6.656 11.776-20.48 16.384-30.208 10.752-9.728-5.632-12.288-19.968-5.632-31.744 6.656-11.776 20.48-16.384 30.208-10.752 9.728 6.144 12.288 20.48 5.632 31.744z" fill="#040000" p-id="29235"></path></svg>