<?xml version="1.0" standalone="no"?><!DOCTYPE svg PUBLIC "-//W3C//DTD SVG 1.1//EN" "http://www.w3.org/Graphics/SVG/1.1/DTD/svg11.dtd"><svg t="1611654196902" class="icon" viewBox="0 0 1235 1024" version="1.1" xmlns="http://www.w3.org/2000/svg" p-id="18926" xmlns:xlink="http://www.w3.org/1999/xlink" width="154.375" height="128"><defs><style type="text/css"></style></defs><path d="M668.248276 249.82069a62.675862 62.675862 0 0 1-101.958621 44.137931 63.117241 63.117241 0 0 1 17.213793-108.137931 64 64 0 0 1 84.744828 61.793103M357.517241 264.827586a63.558621 63.558621 0 1 1-82.97931-76.8A64.882759 64.882759 0 0 1 357.517241 264.827586m343.834483-199.062069A524.358621 524.358621 0 0 0 274.537931 29.572414a433.434483 433.434483 0 0 0-223.77931 176.551724 326.17931 326.17931 0 0 0-40.606897 252.910345A397.241379 397.241379 0 0 0 176.551724 685.903448c-15.448276 44.137931-29.131034 88.275862-44.137931 132.413793l150.510345-81.213793a559.227586 559.227586 0 0 0 189.351724 26.924138 311.172414 311.172414 0 0 1-13.682759-152.275862 324.413793 324.413793 0 0 1 102.4-183.613793 448.882759 448.882759 0 0 1 334.124138-109.903448 380.910345 380.910345 0 0 0-195.089655-252.910345" fill="#09BB07" p-id="18927"></path><path d="M1037.241379 581.737931a51.641379 51.641379 0 0 1-81.213793 13.682759 73.710345 73.710345 0 0 1-17.213793-36.634483c5.737931-23.393103 21.186207-48.551724 48.110345-48.551724a50.317241 50.317241 0 0 1 50.317241 71.503448m-247.172413-3.972414a50.758621 50.758621 0 0 1-82.979311 17.655173 50.758621 50.758621 0 1 1 82.979311-17.655173m422.841379-26.924138a340.303448 340.303448 0 0 0-158.455173-161.986207 432.110345 432.110345 0 0 0-391.944827 0 317.351724 317.351724 0 0 0-173.462069 214.510345 271.448276 271.448276 0 0 0 34.427586 204.358621 372.965517 372.965517 0 0 0 252.910345 165.958621 460.358621 460.358621 0 0 0 224.22069-15.448276c44.137931 17.655172 80.772414 44.137931 123.586206 64-11.917241-36.634483-23.393103-71.503448-34.868965-108.137931a369.434483 369.434483 0 0 0 115.641379-127.558621 276.303448 276.303448 0 0 0 7.944828-237.462069" fill="#09BB07" p-id="18928"></path></svg>