<?xml version="1.0" standalone="no"?><!DOCTYPE svg PUBLIC "-//W3C//DTD SVG 1.1//EN" "http://www.w3.org/Graphics/SVG/1.1/DTD/svg11.dtd"><svg t="1645857497147" class="icon" viewBox="0 0 1024 1024" version="1.1" xmlns="http://www.w3.org/2000/svg" p-id="9845" xmlns:xlink="http://www.w3.org/1999/xlink" width="128" height="128"><defs><style type="text/css"></style></defs><path d="M683.287273 71.68c31.650909 0.465455 63.301818 0.930909 94.952727 1.163636-67.723636 174.778182-130.792727 350.952727-198.749091 525.498182-49.338182 111.476364-24.436364 235.52-28.392727 353.28-27.927273 0.232727-55.854545 0.465455-83.781818 0.930909-5.12-122.647273 23.04-253.44-31.883637-368.407272-57.949091-138.705455-108.916364-279.970909-166.167272-418.676364 32.581818 0 65.163636 0.232727 97.745454 0.232727 43.054545 126.603636 91.927273 250.88 135.68 377.250909 19.549091-21.410909 35.84-45.614545 43.985455-73.774545 44.450909-132.887273 90.763636-265.076364 136.610909-397.498182z" fill="#FE0000" p-id="9846"></path></svg>